<svg width="24" height="25" viewBox="0 0 24 25" fill="none" xmlns="http://www.w3.org/2000/svg">
<path d="M11.1688 0.0423289C6.00008 0.285781 2.0396 4.7266 2.0396 9.86591V14.5129L0.344891 17.9223C0.34191 17.9286 0.338996 17.9348 0.336149 17.9411C-0.345637 19.391 0.758019 21.1319 2.36056 21.1319H7.79438C7.79438 23.2394 9.52345 24.9684 11.6309 24.9684C13.7383 24.9684 15.4674 23.2394 15.4674 21.1319H20.9C22.5025 21.1319 23.6076 19.3913 22.9256 17.9411C22.9228 17.9348 22.9199 17.9286 22.9169 17.9223L21.2222 14.5129V9.62238C21.2222 4.18335 16.6588 -0.216133 11.1688 0.0423289ZM11.2587 1.95809C15.6836 1.74978 19.3039 5.25016 19.3039 9.62238V14.7377C19.3038 14.8859 19.338 15.0321 19.4038 15.1649L21.1897 18.7591C21.3046 19.0052 21.1717 19.2137 20.9 19.2137H2.36056C2.08886 19.2137 1.95706 19.0056 2.07207 18.7591V18.7578L3.85795 15.1649C3.9238 15.0321 3.95799 14.8859 3.95786 14.7377V9.86591C3.95786 5.70934 7.14182 2.152 11.2587 1.95809ZM9.71264 21.1319H13.5492C13.5492 22.2024 12.7014 23.0502 11.6309 23.0502C10.5604 23.0502 9.71264 22.2024 9.71264 21.1319Z" fill="#EEEEEE"/>
</svg>
