<svg width="26" height="25" viewBox="0 0 26 25" fill="none" xmlns="http://www.w3.org/2000/svg">
<path d="M4.28722 0C2.19015 0 0.467773 1.72238 0.467773 3.81944V21.1806C0.467773 23.2776 2.19015 25 4.28722 25H21.6483C23.7454 25 25.4678 23.2776 25.4678 21.1806V3.81944C25.4678 1.72238 23.7454 0 21.6483 0H4.28722ZM4.28722 2.08333H21.6483C22.6193 2.08333 23.3844 2.84845 23.3844 3.81944V21.1806C23.3844 22.1515 22.6193 22.9167 21.6483 22.9167H4.28722C3.31623 22.9167 2.55111 22.1515 2.55111 21.1806V3.81944C2.55111 2.84845 3.31623 2.08333 4.28722 2.08333ZM14.1858 6.23508C13.9455 6.2322 13.7117 6.31245 13.5238 6.46225C13.3359 6.61204 13.2056 6.82216 13.1549 7.05702L10.7502 17.4737C10.7193 17.607 10.7151 17.7451 10.7376 17.8801C10.7602 18.015 10.8091 18.1442 10.8816 18.2603C10.9541 18.3763 11.0487 18.477 11.1601 18.5565C11.2715 18.636 11.3974 18.6927 11.5307 18.7236C11.6641 18.7544 11.8021 18.7586 11.9371 18.7361C12.0721 18.7135 12.2013 18.6646 12.3173 18.5921C12.5517 18.4457 12.7184 18.2122 12.7806 17.943L15.1854 7.52631C15.223 7.37384 15.2257 7.21484 15.1932 7.06119C15.1607 6.90755 15.0938 6.76324 14.9977 6.63906C14.9016 6.51488 14.7786 6.41404 14.638 6.34408C14.4974 6.27413 14.3428 6.23686 14.1858 6.23508ZM8.47559 8.32248C8.32398 8.32077 8.17383 8.35216 8.03561 8.41447C7.89739 8.47679 7.77444 8.56852 7.67535 8.68327L4.89757 11.8083C4.72827 11.9989 4.63477 12.245 4.63477 12.5C4.63477 12.755 4.72827 13.0011 4.89757 13.1917L7.67535 16.3167C7.76505 16.4229 7.87509 16.51 7.99899 16.573C8.12288 16.636 8.25813 16.6736 8.39677 16.6835C8.53541 16.6934 8.67462 16.6755 8.80623 16.6308C8.93783 16.5861 9.05916 16.5155 9.16306 16.4232C9.26696 16.3309 9.35134 16.2187 9.41123 16.0932C9.47111 15.9678 9.50529 15.8317 9.51175 15.6928C9.51822 15.554 9.49683 15.4153 9.44886 15.2848C9.40089 15.1544 9.3273 15.0348 9.23242 14.9333L7.07042 12.5L9.23242 10.0667C9.36796 9.91834 9.45767 9.7339 9.49076 9.53567C9.52384 9.33744 9.49888 9.13387 9.41888 8.9495C9.33888 8.76514 9.20727 8.60785 9.03989 8.49659C8.87252 8.38534 8.67655 8.32487 8.47559 8.32248ZM17.4288 8.32248C17.2305 8.33065 17.0386 8.39529 16.8758 8.5088C16.713 8.62231 16.586 8.77997 16.5098 8.96322C16.4335 9.14647 16.4112 9.34769 16.4455 9.54318C16.4797 9.73868 16.5691 9.92032 16.7031 10.0667L18.8651 12.5L16.7031 14.9333C16.6082 15.0348 16.5347 15.1544 16.4867 15.2848C16.4387 15.4153 16.4173 15.554 16.4238 15.6928C16.4303 15.8317 16.4644 15.9678 16.5243 16.0932C16.5842 16.2187 16.6686 16.3309 16.7725 16.4232C16.8764 16.5155 16.9977 16.5861 17.1293 16.6308C17.2609 16.6755 17.4001 16.6934 17.5388 16.6835C17.6774 16.6736 17.8127 16.636 17.9366 16.573C18.0605 16.51 18.1705 16.4229 18.2602 16.3167L21.038 13.1917C21.2073 13.0011 21.3008 12.755 21.3008 12.5C21.3008 12.245 21.2073 11.9989 21.038 11.8083L18.2602 8.68327C18.1577 8.56439 18.0297 8.47019 17.8858 8.40772C17.7418 8.34525 17.5856 8.31611 17.4288 8.32248Z" fill="#EEEEEE" fill-opacity="0.6"/>
</svg>
