<svg width="23" height="21" viewBox="0 0 23 21" fill="none" xmlns="http://www.w3.org/2000/svg">
<path d="M6.35706 0.5C2.89557 0.5 0.0712891 3.32428 0.0712891 6.78577C0.0712891 9.12645 1.83567 11.3303 3.9865 13.5905C6.13733 15.8507 8.78472 18.1398 10.8939 20.249C11.0547 20.4097 11.2727 20.5 11.5 20.5C11.7272 20.5 11.9452 20.4097 12.106 20.249C14.2152 18.1398 16.8626 15.8507 19.0134 13.5905C21.1642 11.3303 22.9286 9.12645 22.9286 6.78577C22.9286 3.32428 20.1043 0.5 16.6429 0.5C14.6563 0.5 12.9267 1.56657 11.5 3.37837C10.0732 1.56657 8.34361 0.5 6.35706 0.5ZM6.35706 2.2143C8.03054 2.2143 9.42354 3.10482 10.7756 5.24334C10.8529 5.3655 10.9599 5.46611 11.0865 5.53583C11.2132 5.60555 11.3554 5.64211 11.5 5.64211C11.6445 5.64211 11.7867 5.60555 11.9134 5.53583C12.04 5.46611 12.147 5.3655 12.2243 5.24334C13.5764 3.10482 14.9694 2.2143 16.6429 2.2143C19.178 2.2143 21.2143 4.25064 21.2143 6.78577C21.2143 8.1594 19.8358 10.2413 17.7723 12.4097C15.8906 14.3871 13.5516 16.453 11.5 18.4533C9.44833 16.453 7.1093 14.3871 5.22758 12.4097C3.16409 10.2413 1.78559 8.1594 1.78559 6.78577C1.78559 4.25064 3.82192 2.2143 6.35706 2.2143Z" fill="#C5B3FD"/>
</svg>
