<svg width="18" height="20" viewBox="0 0 18 20" fill="none" xmlns="http://www.w3.org/2000/svg">
<path d="M8.5024 0C3.8157 0 0 3.8157 0 8.5024C0 10.6064 0.771871 12.536 2.03964 14.0196L2.04355 14.0235L2.04648 14.0274C2.04648 14.0274 5.66346 18.1546 6.95118 19.3834C7.81349 20.2055 9.19033 20.2055 10.0526 19.3834C11.5204 17.9834 14.9593 14.0254 14.9593 14.0254L14.9613 14.0225L14.9642 14.0196C16.2331 12.5359 17.0048 10.6064 17.0048 8.5024C17.0048 3.8157 13.1891 0 8.5024 0ZM8.5024 1.50042C12.3781 1.50042 15.5044 4.62668 15.5044 8.5024C15.5044 10.2405 14.871 11.8196 13.8232 13.0447C13.8164 13.0525 10.2979 17.0766 9.01719 18.2981C8.72018 18.5813 8.28365 18.5813 7.98663 18.2981C6.91624 17.2768 3.19145 13.057 3.18059 13.0447L3.17961 13.0437C2.13327 11.8188 1.50042 10.24 1.50042 8.5024C1.50042 4.62668 4.62668 1.50042 8.5024 1.50042ZM8.5024 5.50155C7.56464 5.50155 6.76632 5.88023 6.25372 6.4569C5.74112 7.03358 5.50155 7.77303 5.50155 8.5024C5.50155 9.23177 5.74112 9.97123 6.25372 10.5479C6.76632 11.1246 7.56464 11.5032 8.5024 11.5032C9.44017 11.5032 10.2385 11.1246 10.7511 10.5479C11.2637 9.97123 11.5032 9.23177 11.5032 8.5024C11.5032 7.77303 11.2637 7.03358 10.7511 6.4569C10.2385 5.88023 9.44017 5.50155 8.5024 5.50155ZM8.5024 7.00198C9.06506 7.00198 9.39206 7.18596 9.62967 7.45328C9.86728 7.72059 10.0028 8.10645 10.0028 8.5024C10.0028 8.89835 9.86728 9.28421 9.62967 9.55153C9.39206 9.81884 9.06506 10.0028 8.5024 10.0028C7.93974 10.0028 7.61274 9.81884 7.37513 9.55153C7.13752 9.28421 7.00198 8.89835 7.00198 8.5024C7.00198 8.10645 7.13752 7.72059 7.37513 7.45328C7.61274 7.18596 7.93974 7.00198 8.5024 7.00198Z" fill="#EEEEEE" fill-opacity="0.6"/>
</svg>
