<svg width="26" height="25" viewBox="0 0 26 25" fill="none" xmlns="http://www.w3.org/2000/svg">
<path d="M12.6009 0.0300293C5.72494 0.0300293 0.130859 5.62412 0.130859 12.5C0.130859 19.3759 5.72494 24.97 12.6009 24.97C19.4768 24.97 25.0709 19.3759 25.0709 12.5C25.0709 5.62412 19.4768 0.0300293 12.6009 0.0300293ZM12.6009 1.90053C18.4659 1.90053 23.2004 6.63501 23.2004 12.5C23.2004 18.365 18.4659 23.0995 12.6009 23.0995C6.73583 23.0995 2.00136 18.365 2.00136 12.5C2.00136 6.63501 6.73583 1.90053 12.6009 1.90053ZM12.5862 6.25163C12.3384 6.25551 12.1023 6.35759 11.9296 6.53546C11.757 6.71333 11.6621 6.95244 11.6656 7.20028V11.5648H7.30111C7.17718 11.563 7.05413 11.5859 6.93913 11.6321C6.82412 11.6784 6.71945 11.747 6.63119 11.834C6.54293 11.921 6.47284 12.0247 6.42501 12.139C6.37717 12.2534 6.35254 12.3761 6.35254 12.5C6.35254 12.624 6.37717 12.7467 6.42501 12.861C6.47284 12.9754 6.54293 13.0791 6.63119 13.1661C6.71945 13.2531 6.82412 13.3217 6.93913 13.3679C7.05413 13.4141 7.17718 13.437 7.30111 13.4353H11.6656V17.7998C11.6639 17.9237 11.6868 18.0468 11.733 18.1618C11.7792 18.2768 11.8478 18.3814 11.9348 18.4697C12.0218 18.558 12.1255 18.628 12.2399 18.6759C12.3542 18.7237 12.4769 18.7483 12.6009 18.7483C12.7248 18.7483 12.8475 18.7237 12.9619 18.6759C13.0762 18.628 13.1799 18.558 13.2669 18.4697C13.3539 18.3814 13.4225 18.2768 13.4688 18.1618C13.515 18.0468 13.5379 17.9237 13.5361 17.7998V13.4353H17.9006C18.0245 13.437 18.1476 13.4141 18.2626 13.3679C18.3776 13.3217 18.4823 13.2531 18.5705 13.1661C18.6588 13.0791 18.7289 12.9754 18.7767 12.861C18.8245 12.7467 18.8492 12.624 18.8492 12.5C18.8492 12.3761 18.8245 12.2534 18.7767 12.139C18.7289 12.0247 18.6588 11.921 18.5705 11.834C18.4823 11.747 18.3776 11.6784 18.2626 11.6321C18.1476 11.5859 18.0245 11.563 17.9006 11.5648H13.5361V7.20028C13.5379 7.0751 13.5146 6.95084 13.4674 6.83485C13.4203 6.71887 13.3504 6.61352 13.2618 6.52505C13.1732 6.43658 13.0678 6.3668 12.9518 6.31984C12.8357 6.27287 12.7114 6.24968 12.5862 6.25163Z" fill="#EEEEEE"/>
</svg>
