<svg width="28" height="25" viewBox="0 0 28 25" fill="none" xmlns="http://www.w3.org/2000/svg">
<path d="M4.92607 0C4.65728 2.68752e-05 4.3995 0.106816 4.20944 0.296881C4.01937 0.486946 3.91259 0.744721 3.91256 1.01351V2.02703H1.54769C1.2789 2.02705 1.02113 2.13384 0.831061 2.32391C0.640996 2.51397 0.534207 2.77175 0.53418 3.04054V23.9865C0.534207 24.2553 0.640996 24.5131 0.831061 24.7031C1.02113 24.8932 1.2789 25 1.54769 25H26.5477C26.8165 25 27.0743 24.8932 27.2643 24.7031C27.4544 24.5131 27.5612 24.2553 27.5612 23.9865V3.04054C27.5612 2.77175 27.4544 2.51397 27.2643 2.32391C27.0743 2.13384 26.8165 2.02705 26.5477 2.02703H24.1828V1.01351C24.1828 0.744721 24.076 0.486946 23.8859 0.296881C23.6959 0.106816 23.4381 2.68752e-05 23.1693 0H18.1017C16.4042 0 14.9686 0.900629 14.0477 2.19199C13.1268 0.900629 11.6911 0 9.99364 0H4.92607ZM5.93959 2.02703H9.99364C11.6852 2.02703 13.0342 3.37601 13.0342 5.06757V20.6279C12.1842 19.9865 11.1349 19.5946 9.99364 19.5946H5.93959V3.20682C5.95746 3.09802 5.95746 2.98702 5.93959 2.87822V2.02703ZM18.1017 2.02703H22.1558V2.87426C22.1379 2.98307 22.1379 3.09406 22.1558 3.20286V19.5946H18.1017C16.9605 19.5946 15.9112 19.9865 15.0612 20.6279V5.06757C15.0612 3.37601 16.4102 2.02703 18.1017 2.02703ZM2.56121 4.05405H3.91256V20.6081C3.91259 20.8769 4.01937 21.1347 4.20944 21.3247C4.3995 21.5148 4.65728 21.6216 4.92607 21.6216H9.99364C11.0548 21.6216 11.9779 22.1599 12.5208 22.973H2.56121V4.05405ZM24.1828 4.05405H25.5342V22.973H15.5746C16.1175 22.1599 17.0406 21.6216 18.1017 21.6216H23.1693C23.4381 21.6216 23.6959 21.5148 23.8859 21.3247C24.076 21.1347 24.1828 20.8769 24.1828 20.6081V4.05405Z" fill="#EEEEEE" fill-opacity="0.6"/>
</svg>
