<svg width="25" height="25" viewBox="0 0 25 25" fill="none" xmlns="http://www.w3.org/2000/svg">
<path d="M12.5506 0C11.6228 6.24628e-08 10.6956 0.216999 9.84708 0.651468C9.84627 0.651873 9.84546 0.65228 9.84464 0.652688L2.54552 4.41022C1.40348 4.99839 0.682617 6.17995 0.682617 7.46504V17.5347C0.682617 18.8194 1.40266 20.0006 2.54552 20.5883L9.84464 24.3471C9.84505 24.3475 9.84546 24.3479 9.84586 24.3483C11.543 25.2172 13.5569 25.2172 15.254 24.3483C15.2548 24.3479 15.2556 24.3475 15.2565 24.3471L22.5556 20.5883C23.6976 20.0002 24.4173 18.8194 24.4173 17.5347V7.46504C24.4173 6.18065 23.698 4.99931 22.5556 4.41144H22.5544L15.2565 0.652688C15.2561 0.652281 15.2556 0.651874 15.2552 0.651468C14.4067 0.216997 13.4783 0 12.5506 0ZM12.5506 1.87388C13.185 1.87388 13.82 2.0228 14.4013 2.3204L21.6967 6.0767C21.6971 6.07711 21.6975 6.07752 21.6979 6.07792C22.2191 6.34593 22.5434 6.87835 22.5434 7.46504V17.5347C22.5434 18.1214 22.2187 18.6542 21.6967 18.9231L14.4 22.6794C13.2384 23.2741 11.8642 23.2745 10.7023 22.6806L10.6998 22.6794L3.40317 18.9231C3.40317 18.9227 3.40317 18.9222 3.40317 18.9218C2.88199 18.6538 2.5565 18.1214 2.5565 17.5347V7.46504C2.5565 6.8775 2.8812 6.34552 3.40317 6.0767L10.7011 2.3204C11.2823 2.0228 11.9161 1.87388 12.5506 1.87388ZM4.7244 6.55982C4.51425 6.56161 4.3108 6.634 4.14675 6.76535C3.9827 6.8967 3.86756 7.07938 3.81984 7.28405C3.77213 7.48872 3.79459 7.70349 3.88364 7.89385C3.97269 8.08421 4.12314 8.23911 4.31083 8.33366L9.82756 11.2006C10.3937 11.4946 10.9996 11.6543 11.6136 11.7533V20.9324C11.6119 21.0565 11.6348 21.1798 11.6811 21.295C11.7274 21.4102 11.7961 21.5151 11.8833 21.6035C11.9705 21.6919 12.0744 21.7621 12.1889 21.81C12.3035 21.858 12.4264 21.8826 12.5506 21.8826C12.6747 21.8826 12.7977 21.858 12.9122 21.81C13.0267 21.7621 13.1306 21.6919 13.2178 21.6035C13.305 21.5151 13.3737 21.4102 13.42 21.295C13.4663 21.1798 13.4892 21.0565 13.4875 20.9324V11.7533C14.1015 11.6543 14.7062 11.4946 15.2723 11.2006C15.2727 11.2006 15.2731 11.2006 15.2735 11.2006L20.7903 8.33488C21.0109 8.22034 21.1771 8.02283 21.2521 7.78581C21.3272 7.54878 21.305 7.29165 21.1904 7.07099C21.0759 6.85032 20.8784 6.68419 20.6414 6.60915C20.4043 6.5341 20.1472 6.55629 19.9265 6.67083L14.4086 9.53778C13.8295 9.8383 13.1973 9.9868 12.5652 9.98917C12.5542 9.98857 12.5432 9.98816 12.5323 9.98795C11.9011 9.98495 11.2695 9.83807 10.6913 9.53778L5.17457 6.67205C5.0363 6.5975 4.88149 6.5589 4.7244 6.55982ZM20.3438 11.8618C20.0955 11.8657 19.8589 11.968 19.686 12.1462C19.513 12.3244 19.4179 12.5639 19.4215 12.8122V16.2001C19.4215 16.2133 19.4183 16.2198 19.4068 16.2257C19.4064 16.2257 19.406 16.2257 19.4056 16.2257L16.8058 17.564C16.6964 17.6204 16.5991 17.6978 16.5196 17.7917C16.44 17.8857 16.3798 17.9944 16.3423 18.1117C16.3047 18.229 16.2907 18.3525 16.3009 18.4752C16.3111 18.5979 16.3454 18.7173 16.4018 18.8268C16.4582 18.9362 16.5356 19.0335 16.6296 19.113C16.7236 19.1925 16.8324 19.2527 16.9496 19.2902C17.0669 19.3277 17.1904 19.3417 17.3131 19.3315C17.4358 19.3212 17.5553 19.2869 17.6647 19.2305L20.2632 17.891C20.8951 17.5658 21.2953 16.9102 21.2953 16.2001V12.8122C21.2971 12.6868 21.2738 12.5623 21.2266 12.4461C21.1793 12.3299 21.1093 12.2244 21.0206 12.1357C20.9318 12.0471 20.8262 11.9772 20.7099 11.9302C20.5937 11.8831 20.4692 11.8599 20.3438 11.8618Z" fill="#EEEEEE" fill-opacity="0.6"/>
</svg>
