<svg width="27" height="25" viewBox="0 0 27 25" fill="none" xmlns="http://www.w3.org/2000/svg">
<path d="M3.29492 0C1.75273 0 0.482422 1.27031 0.482422 2.8125V19.0625C0.483647 19.1104 0.488544 19.1582 0.49707 19.2053C0.573987 20.681 1.80156 21.875 3.29492 21.875H20.7949C22.3371 21.875 23.6074 20.6047 23.6074 19.0625V6.5625C23.6074 5.02031 22.3371 3.75 20.7949 3.75H6.10742V1.5625C6.10742 0.710254 5.39717 0 4.54492 0H3.29492ZM3.29492 1.875H4.23242V4.53369C4.21589 4.63434 4.21589 4.737 4.23242 4.83765V16.25H3.29492C2.9633 16.25 2.65397 16.3341 2.35742 16.4417V2.8125C2.35742 2.28344 2.76586 1.875 3.29492 1.875ZM6.10742 5.625H20.7949C21.324 5.625 21.7324 6.03344 21.7324 6.5625V19.0625C21.7324 19.5916 21.324 20 20.7949 20H3.29492C2.76586 20 2.35742 19.5916 2.35742 19.0625C2.35742 18.5334 2.76586 18.125 3.29492 18.125H4.54492C5.39717 18.125 6.10742 17.4147 6.10742 16.5625V5.625ZM24.8574 7.04712V19.0625C24.8574 21.3025 23.0349 23.125 20.7949 23.125H3.77954C4.16767 24.2138 5.1993 25 6.41992 25H20.7949C24.0687 25 26.7324 22.3363 26.7324 19.0625V9.6875C26.7324 8.46688 25.9462 7.43587 24.8574 7.04712ZM18.2766 8.11646C18.2431 8.11751 18.2097 8.12037 18.1765 8.125H15.7949C15.6707 8.12324 15.5474 8.14619 15.4321 8.19252C15.3168 8.23885 15.2119 8.30762 15.1234 8.39485C15.0349 8.48208 14.9647 8.58602 14.9167 8.70064C14.8688 8.81525 14.8441 8.93826 14.8441 9.0625C14.8441 9.18674 14.8688 9.30975 14.9167 9.42436C14.9647 9.53898 15.0349 9.64292 15.1234 9.73015C15.2119 9.81738 15.3168 9.88615 15.4321 9.93248C15.5474 9.97881 15.6707 10.0018 15.7949 10H16.0317L14.5449 11.4868L12.7078 9.64966C12.5319 9.47391 12.2935 9.37518 12.0449 9.37518C11.7963 9.37518 11.5579 9.47391 11.3821 9.64966L8.88208 12.1497C8.79211 12.236 8.72027 12.3395 8.67079 12.454C8.62131 12.5685 8.59517 12.6917 8.5939 12.8164C8.59263 12.9412 8.61626 13.0649 8.66341 13.1804C8.71055 13.2958 8.78027 13.4008 8.86846 13.489C8.95666 13.5772 9.06157 13.6469 9.17705 13.694C9.29253 13.7412 9.41625 13.7648 9.54097 13.7635C9.6657 13.7623 9.78892 13.7361 9.90341 13.6866C10.0179 13.6371 10.1214 13.5653 10.2078 13.4753L12.0449 11.6382L13.8821 13.4753C14.0579 13.6511 14.2963 13.7498 14.5449 13.7498C14.7935 13.7498 15.0319 13.6511 15.2078 13.4753L17.3574 11.3257V11.5625C17.3557 11.6867 17.3786 11.8101 17.4249 11.9254C17.4713 12.0406 17.54 12.1456 17.6273 12.234C17.7145 12.3225 17.8184 12.3928 17.9331 12.4407C18.0477 12.4887 18.1707 12.5134 18.2949 12.5134C18.4192 12.5134 18.5422 12.4887 18.6568 12.4407C18.7714 12.3928 18.8753 12.3225 18.9626 12.234C19.0498 12.1456 19.1186 12.0406 19.1649 11.9254C19.2112 11.8101 19.2342 11.6867 19.2324 11.5625V9.17114C19.2494 9.03701 19.2371 8.90079 19.1964 8.77185C19.1558 8.6429 19.0877 8.52427 18.997 8.42409C18.9062 8.3239 18.7948 8.24454 18.6704 8.19144C18.5461 8.13834 18.4118 8.11276 18.2766 8.11646ZM9.54492 15.625C9.42069 15.6232 9.29735 15.6462 9.18207 15.6925C9.06679 15.7388 8.96186 15.8076 8.87339 15.8949C8.78492 15.9821 8.71466 16.086 8.66671 16.2006C8.61876 16.3153 8.59407 16.4383 8.59407 16.5625C8.59407 16.6867 8.61876 16.8097 8.66671 16.9244C8.71466 17.039 8.78492 17.1429 8.87339 17.2302C8.96186 17.3174 9.06679 17.3862 9.18207 17.4325C9.29735 17.4788 9.42069 17.5018 9.54492 17.5H18.2949C18.4192 17.5018 18.5425 17.4788 18.6578 17.4325C18.7731 17.3862 18.878 17.3174 18.9665 17.2302C19.0549 17.1429 19.1252 17.039 19.1731 16.9244C19.2211 16.8097 19.2458 16.6867 19.2458 16.5625C19.2458 16.4383 19.2211 16.3153 19.1731 16.2006C19.1252 16.086 19.0549 15.9821 18.9665 15.8949C18.878 15.8076 18.7731 15.7388 18.6578 15.6925C18.5425 15.6462 18.4192 15.6232 18.2949 15.625H9.54492Z" fill="#EEEEEE" fill-opacity="0.6"/>
</svg>
