<svg width="20" height="25" viewBox="0 0 20 25" fill="none" xmlns="http://www.w3.org/2000/svg">
<path d="M3.70508 0C1.93568 0 0.482422 1.40914 0.482422 3.12483V18.466V19.0341C0.482422 20.6608 1.77207 22.0002 3.41211 22.1445V20.4257C2.83933 20.3126 2.38951 19.8732 2.27228 19.3182H18.3535C18.5866 19.3182 18.8101 19.2284 18.975 19.0686C19.1398 18.9088 19.2324 18.692 19.2324 18.466V3.12483C19.2324 1.40914 17.7792 0 16.0098 0H3.70508ZM3.70508 1.70445H16.0098C16.829 1.70445 17.4746 2.33042 17.4746 3.12483V17.6138H2.24023V3.12483C2.24023 2.33042 2.88581 1.70445 3.70508 1.70445ZM5.16992 3.97816C4.85912 3.97816 4.56105 4.09788 4.34128 4.31098C4.12151 4.52407 3.99805 4.8131 3.99805 5.11446C3.99805 5.41583 4.12151 5.70485 4.34128 5.91795C4.56105 6.13105 4.85912 6.25076 5.16992 6.25076C5.48072 6.25076 5.77879 6.13105 5.99856 5.91795C6.21833 5.70485 6.3418 5.41583 6.3418 5.11446C6.3418 4.8131 6.21833 4.52407 5.99856 4.31098C5.77879 4.09788 5.48072 3.97816 5.16992 3.97816ZM5.16992 8.52336C4.85912 8.52336 4.56105 8.64308 4.34128 8.85618C4.12151 9.06928 3.99805 9.3583 3.99805 9.65966C3.99805 9.96103 4.12151 10.2501 4.34128 10.4632C4.56105 10.6762 4.85912 10.796 5.16992 10.796C5.48072 10.796 5.77879 10.6762 5.99856 10.4632C6.21833 10.2501 6.3418 9.96103 6.3418 9.65966C6.3418 9.3583 6.21833 9.06928 5.99856 8.85618C5.77879 8.64308 5.48072 8.52336 5.16992 8.52336ZM5.16992 13.0686C4.85912 13.0686 4.56105 13.1883 4.34128 13.4014C4.12151 13.6145 3.99805 13.9035 3.99805 14.2049C3.99805 14.5062 4.12151 14.7953 4.34128 15.0084C4.56105 15.2214 4.85912 15.3412 5.16992 15.3412C5.48072 15.3412 5.77879 15.2214 5.99856 15.0084C6.21833 14.7953 6.3418 14.5062 6.3418 14.2049C6.3418 13.9035 6.21833 13.6145 5.99856 13.4014C5.77879 13.1883 5.48072 13.0686 5.16992 13.0686ZM4.58398 20.4545V24.1475C4.58398 24.4918 4.79772 24.8024 5.12643 24.9343C5.45515 25.0678 5.83352 24.9938 6.0843 24.75L7.2207 23.6481L8.3571 24.75C8.52527 24.9131 8.74941 24.9997 8.97852 24.9997C9.0916 24.9997 9.20657 24.9791 9.31497 24.9354C9.64368 24.803 9.85742 24.4918 9.85742 24.1475V20.4545H4.58398ZM11.0293 20.4545V22.159H18.3535C18.8393 22.159 19.2324 21.7772 19.2324 21.3067C19.2324 20.8363 18.8393 20.4545 18.3535 20.4545H11.0293Z" fill="#EEEEEE" fill-opacity="0.6"/>
</svg>
