<svg width="21" height="20" viewBox="0 0 21 20" fill="none" xmlns="http://www.w3.org/2000/svg">
<path d="M10.3207 1.53937e-05C10.1761 -0.000905827 10.0341 0.0395371 9.91089 0.116757C9.78767 0.193977 9.68812 0.304885 9.62354 0.436901L6.966 5.86045L0.655604 6.85141C0.514355 6.87368 0.381911 6.93543 0.27296 7.02983C0.164009 7.12422 0.082808 7.24756 0.0383628 7.38618C-0.00608236 7.52479 -0.0120351 7.67325 0.0211646 7.81511C0.0543643 7.95696 0.125419 8.08666 0.226449 8.18982L4.59154 12.644L3.61939 19.0904C3.59765 19.2346 3.61549 19.3821 3.67095 19.5166C3.72641 19.6511 3.81731 19.7673 3.93356 19.8523C4.04982 19.9373 4.18687 19.9877 4.32952 19.998C4.47216 20.0083 4.61482 19.9781 4.74164 19.9107L10.3156 16.9429L15.8896 19.9107C16.0164 19.9781 16.1591 20.0083 16.3017 19.998C16.4444 19.9877 16.5814 19.9373 16.6977 19.8523C16.8139 19.7673 16.9048 19.6511 16.9603 19.5166C17.0158 19.3821 17.0336 19.2346 17.0119 19.0904L16.0397 12.644L20.4048 8.18982C20.5058 8.08666 20.5769 7.95696 20.6101 7.81511C20.6433 7.67325 20.6373 7.52479 20.5929 7.38618C20.5484 7.24756 20.4672 7.12422 20.3583 7.02983C20.2493 6.93543 20.1169 6.87368 19.9756 6.85141L13.6652 5.86045L11.0077 0.436901C10.9439 0.306447 10.8459 0.196574 10.7246 0.11946C10.6034 0.0423461 10.4635 0.00100373 10.3207 1.53937e-05ZM10.3156 2.55451L12.4604 6.93159C12.5156 7.04451 12.5966 7.14227 12.6965 7.21668C12.7964 7.29108 12.9124 7.33996 13.0346 7.35922L18.2308 8.17543L14.6686 11.8103C14.5827 11.898 14.5182 12.0051 14.4804 12.123C14.4426 12.2409 14.4325 12.3662 14.451 12.4888L15.2499 17.789L10.6733 15.3527C10.5628 15.294 10.4401 15.2633 10.3156 15.2633C10.1911 15.2633 10.0684 15.294 9.95799 15.3527L5.38135 17.789L6.18022 12.4888C6.19872 12.3662 6.18866 12.2409 6.15085 12.123C6.11305 12.0051 6.04856 11.898 5.96262 11.8103L2.40043 8.17543L7.59663 7.35922C7.71887 7.33996 7.83481 7.29108 7.93472 7.21668C8.03463 7.14227 8.11561 7.04451 8.17085 6.93159L10.3156 2.55451Z" fill="#EEEEEE" fill-opacity="0.6"/>
</svg>
