<svg width="16" height="21" viewBox="0 0 16 21" fill="none" xmlns="http://www.w3.org/2000/svg">
<path d="M7.99951 0.5C5.24714 0.5 2.99982 2.74746 2.99982 5.5C2.99982 8.25254 5.24714 10.5 7.99951 10.5C10.7519 10.5 12.9992 8.25254 12.9992 5.5C12.9992 2.74746 10.7519 0.5 7.99951 0.5ZM7.99951 2C9.94128 2 11.4993 3.55812 11.4993 5.5C11.4993 7.44188 9.94128 9 7.99951 9C6.05775 9 4.49973 7.44188 4.49973 5.5C4.49973 3.55812 6.05775 2 7.99951 2ZM1.98914 12.5C0.899297 12.5 0 13.3994 0 14.4893V15.25C0 17.0521 1.13957 18.4461 2.65316 19.2812C4.16675 20.1164 6.08368 20.5 7.99951 20.5C9.91534 20.5 11.8323 20.1164 13.3459 19.2812C14.6364 18.5692 15.6077 17.4313 15.8799 16H16V14.4893C16 13.3994 15.0997 12.5 14.0099 12.5H1.98914ZM1.98914 14H14.0099C14.289 14 14.5001 14.2102 14.5001 14.4893V14.5H14.4991V15.25C14.4991 16.4479 13.8263 17.3039 12.6213 17.9688C11.4163 18.6336 9.70846 19 7.99951 19C6.29056 19 4.58272 18.6336 3.37772 17.9688C2.17273 17.3039 1.49991 16.4479 1.49991 15.25V14.4893C1.49991 14.2102 1.71006 14 1.98914 14Z" fill="white" fill-opacity="0.6"/>
</svg>
